<mxfile host="app.diagrams.net" modified="2023-12-20T11:02:05.190Z" agent="Mozilla/5.0 (Windows NT 10.0; Win64; x64) AppleWebKit/537.36 (KHTML, like Gecko) Chrome/120.0.0.0 Safari/537.36" version="22.1.11" etag="AYmeUdvA6g19c1WEhEEP" type="github">
  <diagram name="PÃ¡gina-1" id="AzRURG3k3QsvK3-BX71W">
    <mxGraphModel>
      <root>
        <mxCell id="0" />
        <mxCell id="1" parent="0" />
      </root>
    </mxGraphModel>
  </diagram>
</mxfile>
